<svg width="137" height="137" viewBox="0 0 137 137" fill="none" xmlns="http://www.w3.org/2000/svg">
<path d="M68.5 137C106.332 137 137 106.332 137 68.5C137 30.6685 106.332 0 68.5 0C30.6685 0 0 30.6685 0 68.5C0 106.332 30.6685 137 68.5 137Z" fill="#F2F2F2"/>
<path d="M130.927 69.3569C130.928 77.544 129.316 85.6511 126.183 93.2152C123.05 100.779 118.458 107.652 112.669 113.441C106.88 119.23 100.007 123.823 92.4428 126.955C84.8787 130.088 76.7716 131.7 68.5845 131.7C61.2873 131.695 54.0467 130.419 47.1879 127.928C36.4635 124.021 27.0166 117.247 19.8755 108.343C12.7344 99.4391 8.17298 88.7466 6.68775 77.4298C5.20251 66.113 6.85042 54.6057 11.4521 44.1605C16.0537 33.7154 23.4328 24.7329 32.7858 18.191C42.1388 11.649 53.1073 7.79838 64.4971 7.05828C75.8869 6.31818 87.2615 8.71699 97.3825 13.9935C107.503 19.2701 115.983 27.2221 121.897 36.9839C127.812 46.7457 130.935 57.9431 130.927 69.3569Z" fill="white"/>
<path d="M47.719 76.1966C58.3459 76.1966 66.9606 67.5819 66.9606 56.955C66.9606 46.3282 58.3459 37.7135 47.719 37.7135C37.0922 37.7135 28.4775 46.3282 28.4775 56.955C28.4775 67.5819 37.0922 76.1966 47.719 76.1966Z" fill="#E4E4E4"/>
<path d="M128.495 52.0625C124.325 54.0688 119.571 54.505 115.106 53.2912C110.64 52.0774 106.761 49.2949 104.18 45.4536C101.6 41.6123 100.49 36.9697 101.054 32.3765C101.618 27.7833 103.819 23.5472 107.252 20.4448C117.456 28.5116 124.884 39.5664 128.495 52.0625Z" fill="#F2F2F2"/>
<path d="M89.3654 97.0647C93.1911 97.0647 96.2924 93.9634 96.2924 90.1378C96.2924 86.3121 93.1911 83.2108 89.3654 83.2108C85.5398 83.2108 82.4385 86.3121 82.4385 90.1378C82.4385 93.9634 85.5398 97.0647 89.3654 97.0647Z" fill="#E4E4E4"/>
<path d="M60.8879 129.391C60.8873 129.999 60.8071 130.604 60.6493 131.192C56.0531 130.617 51.5371 129.522 47.1879 127.928C47.5491 126.257 48.5156 124.778 49.9015 123.777C51.2874 122.775 52.9948 122.321 54.695 122.503C56.3953 122.684 57.9684 123.488 59.1117 124.76C60.2549 126.031 60.8876 127.681 60.8879 129.391Z" fill="#F2F2F2"/>
<path d="M20.0958 66.2782C20.0955 69.7926 18.7597 73.1754 16.3589 75.7419C13.9582 78.3084 10.6719 79.8667 7.16546 80.1014C5.57834 70.9524 6.041 61.5653 8.52008 52.6167C11.7541 53.1559 14.6921 54.8246 16.8116 57.3261C18.9312 59.8275 20.0949 62.9996 20.0958 66.2782Z" fill="#F2F2F2"/>
<path d="M89.1543 67.1056C89.1543 67.1056 88.0149 70.2728 86.2369 74.8235C85.6619 76.3017 85.018 77.9244 84.3238 79.6324C83.3566 82.0107 82.2914 84.5549 81.1759 87.0991C80.4896 88.665 79.7848 90.2284 79.072 91.7564C75.2405 99.9456 71.1599 107.04 68.4863 107.14C62.4794 107.363 49.6122 71.4312 48.2079 67.461C48.1257 67.2288 48.0833 67.1056 48.0833 67.1056H89.1543Z" fill="#DDBEA9"/>
<path opacity="0.1" d="M86.2368 74.8235C85.6619 76.3017 85.018 77.9244 84.3237 79.6324L68.412 67.1056H76.4328L86.2368 74.8235Z" fill="black"/>
<path opacity="0.1" d="M81.1759 87.0991C80.4896 88.665 79.7848 90.2284 79.072 91.7564L48.2079 67.461C48.1257 67.2288 48.0833 67.1056 48.0833 67.1056H55.7782L81.1759 87.0991Z" fill="black"/>
<path d="M69.331 35.2821C67.4482 36.6154 64.471 36.1113 62.6615 37.5234C61.4238 38.4894 61.0936 40.1411 61.4313 41.5786C61.7691 43.0161 62.6665 44.2916 63.5694 45.5187C64.1925 46.3657 64.839 47.2193 65.7145 47.8634C66.9387 48.764 68.5097 49.1832 70.0497 49.5199C73.4032 50.253 76.8277 50.6968 80.276 50.8452C81.8138 50.9113 83.5554 50.8452 84.5914 49.8272C85.1948 49.2343 85.4374 48.4219 85.6142 47.6362C85.8908 46.4071 86.0445 45.0838 85.473 43.939C85.0032 42.9979 84.0991 42.2926 83.1837 41.6664C80.3124 39.7021 76.9306 38.0759 75.1782 35.2487C74.4816 34.125 74.0521 32.8228 72.9963 31.9508C71.6201 30.8144 68.5581 30.3497 66.9378 31.1089C67.1881 31.6191 70.4597 34.4828 69.331 35.2821Z" fill="#DEAAFF"/>
<path d="M53.5093 48.5342C52.9511 50.2648 52.4368 52.096 52.9069 53.8474C53.5266 56.1566 55.7913 57.886 58.2756 58.7266C60.7599 59.5672 63.4691 59.6654 66.1235 59.754L80.0215 60.2181C81.7681 60.2764 83.5483 60.3404 85.1898 60.8772C86.5427 61.3196 88.1507 62.0481 89.2786 61.2469C89.7902 60.8835 90.02 60.2952 90.2015 59.734C90.7922 57.9082 91.1227 55.9032 90.3283 54.1401C89.418 52.1198 87.1733 50.7923 84.8427 50.1577C82.5121 49.5231 80.0439 49.4613 77.6224 49.2217C75.166 48.9785 72.7372 48.5487 70.3625 47.9369C68.3771 47.4254 66.3657 46.7504 64.8972 45.451C64.1028 44.7482 63.5013 43.891 62.7526 43.1492C58.4636 38.8998 54.5642 45.2639 53.5093 48.5342Z" fill="#DEAAFF"/>
<path d="M50.4554 56.485C49.1036 57.0263 47.9311 57.8705 47.0514 58.9358C46.1717 60.0012 45.6147 61.2516 45.4342 62.5659C45.2537 63.8802 45.456 65.2139 46.0213 66.4379C46.5866 67.6618 47.4959 68.7345 48.6611 69.552C50.7773 71.0368 53.5467 71.5531 56.2298 71.726C58.8498 71.8948 61.4811 71.7787 64.1047 71.6625L87.3176 70.6346C88.6783 70.5744 90.2183 70.4344 91.0489 69.469C91.6688 68.7485 91.7052 67.7547 91.5572 66.8554C91.0248 63.6204 88.2925 60.7564 84.8032 59.7759C83.4873 59.4061 82.1018 59.2891 80.7284 59.1743L70.7776 58.3419C69.4376 58.2298 68.0897 58.1165 66.791 57.8008C62.8559 56.8446 59.3398 54.0526 55.2882 54.466C52.5396 54.7464 50.2766 56.4667 48.2799 58.1786" fill="#DEAAFF"/>
<path opacity="0.1" d="M63.4518 42.4691C63.4518 42.4691 66.6996 47.7114 83.3589 49.8281L63.4518 42.4691Z" fill="black"/>
<path opacity="0.1" d="M54.2367 56.1995C54.2367 56.1995 60.2721 61.6572 85.1796 61.6572L54.2367 56.1995Z" fill="black"/>
<path d="M68.2213 39.8633C69.0994 39.8633 69.8111 39.6512 69.8111 39.3896C69.8111 39.1279 69.0994 38.9158 68.2213 38.9158C67.3433 38.9158 66.6315 39.1279 66.6315 39.3896C66.6315 39.6512 67.3433 39.8633 68.2213 39.8633Z" fill="#7D1AAB"/>
<path d="M73.5208 42.9429C74.3988 42.9429 75.1106 42.7307 75.1106 42.4691C75.1106 42.2074 74.3988 41.9953 73.5208 41.9953C72.6427 41.9953 71.9309 42.2074 71.9309 42.4691C71.9309 42.7307 72.6427 42.9429 73.5208 42.9429Z" fill="#7D1AAB"/>
<path d="M79.6152 46.2593C80.4932 46.2593 81.205 46.0472 81.205 45.7855C81.205 45.5239 80.4932 45.3118 79.6152 45.3118C78.7371 45.3118 78.0253 45.5239 78.0253 45.7855C78.0253 46.0472 78.7371 46.2593 79.6152 46.2593Z" fill="#7D1AAB"/>
<path d="M58.4172 47.6807C59.2953 47.6807 60.0071 47.4686 60.0071 47.2069C60.0071 46.9452 59.2953 46.7331 58.4172 46.7331C57.5392 46.7331 56.8274 46.9452 56.8274 47.2069C56.8274 47.4686 57.5392 47.6807 58.4172 47.6807Z" fill="#7D1AAB"/>
<path d="M71.9309 52.1816C72.8089 52.1816 73.5207 51.9695 73.5207 51.7078C73.5207 51.4462 72.8089 51.234 71.9309 51.234C71.0529 51.234 70.3411 51.4462 70.3411 51.7078C70.3411 51.9695 71.0529 52.1816 71.9309 52.1816Z" fill="#7D1AAB"/>
<path d="M52.8528 61.4203C53.7309 61.4203 54.4426 61.2082 54.4426 60.9465C54.4426 60.6848 53.7309 60.4727 52.8528 60.4727C51.9748 60.4727 51.263 60.6848 51.263 60.9465C51.263 61.2082 51.9748 61.4203 52.8528 61.4203Z" fill="#7D1AAB"/>
<path d="M62.9218 52.6554C63.7999 52.6554 64.5117 52.4433 64.5117 52.1816C64.5117 51.9199 63.7999 51.7078 62.9218 51.7078C62.0438 51.7078 61.332 51.9199 61.332 52.1816C61.332 52.4433 62.0438 52.6554 62.9218 52.6554Z" fill="#7D1AAB"/>
<path d="M56.8274 64.9736C57.7055 64.9736 58.4173 64.7615 58.4173 64.4999C58.4173 64.2382 57.7055 64.0261 56.8274 64.0261C55.9494 64.0261 55.2376 64.2382 55.2376 64.4999C55.2376 64.7615 55.9494 64.9736 56.8274 64.9736Z" fill="#7D1AAB"/>
<path d="M67.1614 62.8416C68.0394 62.8416 68.7512 62.6295 68.7512 62.3678C68.7512 62.1062 68.0394 61.8941 67.1614 61.8941C66.2833 61.8941 65.5715 62.1062 65.5715 62.3678C65.5715 62.6295 66.2833 62.8416 67.1614 62.8416Z" fill="#7D1AAB"/>
<path d="M73.3883 74.2123C74.3395 74.2123 75.1106 72.7805 75.1106 71.0143C75.1106 69.2481 74.3395 67.8163 73.3883 67.8163C72.4371 67.8163 71.666 69.2481 71.666 71.0143C71.666 72.7805 72.4371 74.2123 73.3883 74.2123Z" fill="#DEAAFF"/>
<path d="M75.5081 75.3968C76.4593 75.3968 77.2304 73.965 77.2304 72.1988C77.2304 70.4326 76.4593 69.0008 75.5081 69.0008C74.5569 69.0008 73.7857 70.4326 73.7857 72.1988C73.7857 73.965 74.5569 75.3968 75.5081 75.3968Z" fill="#DEAAFF"/>
</svg>
